<svg width="28" height="28" viewBox="0 0 28 28" fill="none" xmlns="http://www.w3.org/2000/svg">
<path d="M27.9951 13.9989C27.9951 16.0207 27.9951 18.0425 27.9951 20.0643C27.9811 21.6482 27.488 23.1908 26.5805 24.489C25.6731 25.7873 24.3939 26.7804 22.9111 27.3377C21.6499 27.8086 20.3098 28.0322 18.964 27.9963C15.4573 27.9963 11.9505 27.9963 8.44382 27.9963C6.74685 28.0351 5.07802 27.5583 3.65773 26.6288C1.94165 25.5663 0.707664 23.8764 0.218121 21.9183C0.0774545 21.3202 0.00429041 20.7081 0 20.0937C0 16.1088 0 12.1239 0 8.1181C0 6.06275 0.574666 4.21713 2.0386 2.72805C3.42155 1.23535 5.29991 0.296185 7.32385 0.0854521C8.58224 -0.0278019 9.84063 0.00575483 11.0739 0.00156024C13.75 0.00156024 16.4304 0.00156024 19.1108 0.00156024C20.9271 0.00156024 22.672 0.295182 24.2241 1.30188C25.9454 2.32984 27.2032 3.98286 27.735 5.91594C27.8956 6.57515 27.9787 7.25086 27.9825 7.92934C28.0118 9.95113 27.9825 11.9729 27.9825 13.9947L27.9951 13.9989ZM2.09732 13.9989C2.09732 16.0417 2.09732 18.0803 2.09732 20.123C2.09732 22.493 3.35571 24.0995 5.36914 25.1985C6.34811 25.6924 7.43614 25.9304 8.53191 25.8906C12.1435 25.8906 15.7551 25.8906 19.3667 25.8906C20.6216 25.9122 21.8592 25.5949 22.9489 24.972C24.8449 23.873 25.8851 22.2539 25.8851 20.0517C25.9103 15.962 25.9187 11.8723 25.8851 7.77834C25.8851 5.35806 24.5135 3.75992 22.4455 2.69868C21.5152 2.25734 20.4921 2.04724 19.4631 2.08627C15.8725 2.08627 12.2819 2.08627 8.68711 2.08627C7.5364 2.05612 6.39582 2.30814 5.36495 2.82033C3.35571 3.86478 2.14346 5.49228 2.09732 7.82028C2.04699 9.87983 2.09732 11.9394 2.09732 13.9989Z" fill="black"/>
<path d="M14.0093 19.9793C12.7296 19.9603 11.4841 19.5633 10.4295 18.8382C9.37488 18.1132 8.55821 17.0925 8.0822 15.9045C7.60619 14.7165 7.49211 13.4143 7.75431 12.1616C8.0165 10.9089 8.64326 9.76177 9.55576 8.8644C10.4683 7.96703 11.6257 7.35952 12.8826 7.11828C14.1395 6.87704 15.4396 7.01285 16.6195 7.50862C17.7994 8.00439 18.8064 8.83799 19.5137 9.90456C20.2211 10.9711 20.5972 12.2231 20.5949 13.5029C20.575 15.2333 19.8713 16.8855 18.6374 18.0989C17.4036 19.3123 15.7398 19.9883 14.0093 19.9793ZM9.53361 13.4903C9.51695 14.3813 9.76596 15.2572 10.2489 16.0062C10.7318 16.7553 11.4268 17.3436 12.2454 17.6962C13.0639 18.0488 13.9688 18.1497 14.8449 17.9861C15.721 17.8225 16.5286 17.4018 17.1647 16.7776C17.8008 16.1534 18.2367 15.3539 18.4168 14.4811C18.5969 13.6082 18.513 12.7016 18.1759 11.8765C17.8388 11.0515 17.2637 10.3456 16.5239 9.84857C15.7841 9.35159 14.9131 9.08611 14.0219 9.08595C12.8446 9.0814 11.713 9.54132 10.8727 10.3659C10.0325 11.1905 9.55127 12.3131 9.53361 13.4903Z" fill="black"/>
<path d="M22.7389 6.45723C22.729 6.72817 22.6395 6.99019 22.4816 7.21058C22.3237 7.43097 22.1044 7.59998 21.851 7.69649C21.5977 7.79301 21.3215 7.81276 21.057 7.75328C20.7925 7.6938 20.5514 7.55772 20.3637 7.36204C20.1761 7.16636 20.0502 6.91973 20.0019 6.65296C19.9535 6.38619 19.9848 6.11109 20.0919 5.862C20.1989 5.61291 20.377 5.40087 20.6038 5.25235C20.8306 5.10383 21.0961 5.02541 21.3672 5.02688C21.7367 5.04101 22.0862 5.19806 22.3421 5.4649C22.598 5.73174 22.7402 6.08753 22.7389 6.45723Z" fill="black"/>
</svg>
