<svg width="48" height="48" viewBox="0 0 48 48" fill="none" xmlns="http://www.w3.org/2000/svg">
<path d="M23.1848 42.6491C23.1848 45.1607 21.1676 47.185 18.6934 47.185C16.2192 47.185 14.2019 45.1607 14.2019 42.6491C14.2019 40.1374 16.2193 38.1129 18.6934 38.1129C21.1675 38.1129 23.1848 40.1374 23.1848 42.6491Z" stroke="black" stroke-width="1.63043"/>
<path d="M33.7981 42.6491C33.7981 45.1607 31.7808 47.185 29.3066 47.185C26.8324 47.185 24.8152 45.1607 24.8152 42.6491C24.8152 40.1374 26.8325 38.1129 29.3066 38.1129C31.7807 38.1129 33.7981 40.1374 33.7981 42.6491Z" stroke="black" stroke-width="1.63043"/>
<path d="M42.758 36.8402C42.758 39.3519 40.7407 41.3764 38.2666 41.3764C35.7925 41.3764 33.7752 39.3519 33.7752 36.8402C33.7752 34.3286 35.7924 32.3044 38.2666 32.3044C40.7408 32.3044 42.758 34.3286 42.758 36.8402Z" stroke="black" stroke-width="1.63043"/>
<path d="M47.1848 27.1057C47.1848 29.6174 45.1675 31.6419 42.6934 31.6419C40.2193 31.6419 38.2019 29.6174 38.2019 27.1057C38.2019 24.5941 40.2192 22.5699 42.6934 22.5699C45.1676 22.5699 47.1848 24.5941 47.1848 27.1057Z" stroke="black" stroke-width="1.63043"/>
<path d="M45.6648 16.4839C45.6648 18.9956 43.6475 21.0201 41.1733 21.0201C38.6992 21.0201 36.6819 18.9956 36.6819 16.4839C36.6819 13.9723 38.6992 11.948 41.1733 11.948C43.6475 11.948 45.6648 13.9723 45.6648 16.4839Z" stroke="black" stroke-width="1.63043"/>
<path d="M38.7047 8.36296C38.7047 10.8746 36.6874 12.8988 34.2133 12.8988C31.7391 12.8988 29.7218 10.8745 29.7218 8.36296C29.7218 5.85132 31.7391 3.82681 34.2133 3.82681C36.6874 3.82681 38.7047 5.8513 38.7047 8.36296Z" stroke="black" stroke-width="1.63043"/>
<path d="M28.4914 5.35136C28.4914 7.86297 26.4742 9.88724 24 9.88724C21.5258 9.88724 19.5086 7.86297 19.5086 5.35136C19.5086 2.8397 21.5259 0.815217 24 0.815217C26.4741 0.815217 28.4914 2.8397 28.4914 5.35136Z" stroke="black" stroke-width="1.63043"/>
<path d="M18.2781 8.36296C18.2781 10.8745 16.2608 12.8988 13.7866 12.8988C11.3125 12.8988 9.2952 10.8746 9.2952 8.36296C9.2952 5.8513 11.3125 3.82681 13.7866 3.82681C16.2607 3.82681 18.2781 5.85132 18.2781 8.36296Z" stroke="black" stroke-width="1.63043"/>
<path d="M11.3181 16.4839C11.3181 18.9956 9.30077 21.0201 6.82666 21.0201C4.35253 21.0201 2.33518 18.9956 2.33518 16.4839C2.33518 13.9723 4.35248 11.948 6.82666 11.948C9.30083 11.948 11.3181 13.9723 11.3181 16.4839Z" stroke="black" stroke-width="1.63043"/>
<path d="M9.79812 27.1057C9.79812 29.6174 7.78076 31.6419 5.30664 31.6419C2.83252 31.6419 0.815217 29.6174 0.815217 27.1057C0.815217 24.5941 2.83247 22.5699 5.30664 22.5699C7.78081 22.5699 9.79812 24.5941 9.79812 27.1057Z" stroke="black" stroke-width="1.63043"/>
<path d="M14.2247 36.8402C14.2247 39.3519 12.2074 41.3764 9.73327 41.3764C7.25916 41.3764 5.24185 39.3519 5.24185 36.8402C5.24185 34.3286 7.25911 32.3044 9.73327 32.3044C12.2074 32.3044 14.2247 34.3286 14.2247 36.8402Z" stroke="black" stroke-width="1.63043"/>
<path fill-rule="evenodd" clip-rule="evenodd" d="M24 4.93115L34.4388 8.00946L41.5525 16.3096L43.1061 27.1659L38.5815 37.1158L29.4241 43.0523H18.5759L9.41856 37.1158L4.89392 27.1659L6.44753 16.3096L13.5612 8.00946L24 4.93115ZM14.0122 8.71698L7.20589 16.6585L5.7194 27.0458L10.0481 36.5649L18.8109 42.2455H29.1892L37.9519 36.5649L42.2806 27.0458L40.7941 16.6585L33.9878 8.71698L24 5.77166L14.0122 8.71698Z" fill="black" stroke="black" stroke-width="0.815217" stroke-miterlimit="10"/>
</svg>
